<mxfile host="app.diagrams.net" modified="2022-12-15T06:43:25.886Z" agent="5.0 (Macintosh; Intel Mac OS X 10_15_7) AppleWebKit/537.36 (KHTML, like Gecko) Chrome/108.0.0.0 Safari/537.36" version="20.6.2" etag="qmBbHbATTivjjzlI-LCb" type="github">
  <diagram id="vzxhs7wpm8ov9EEKDB5T" name="Page-1">
    <mxGraphModel dx="1426" dy="712" grid="1" gridSize="10" guides="1" tooltips="1" connect="1" arrows="1" fold="1" page="1" pageScale="1" pageWidth="850" pageHeight="1100" math="0" shadow="0">
      <root>
        <mxCell id="0" />
        <mxCell id="1" parent="0" />
        <mxCell id="8ut2l5K282YTQga2OcU2-3" value="" style="edgeStyle=orthogonalEdgeStyle;rounded=0;orthogonalLoop=1;jettySize=auto;html=1;exitX=0.5;exitY=1;exitDx=0;exitDy=0;entryX=0.5;entryY=0;entryDx=0;entryDy=0;" edge="1" parent="1" source="8ut2l5K282YTQga2OcU2-1" target="8ut2l5K282YTQga2OcU2-2">
          <mxGeometry relative="1" as="geometry" />
        </mxCell>
        <mxCell id="8ut2l5K282YTQga2OcU2-1" value="Start Some Action" style="ellipse;whiteSpace=wrap;html=1;" vertex="1" parent="1">
          <mxGeometry x="240" y="150" width="120" height="80" as="geometry" />
        </mxCell>
        <mxCell id="8ut2l5K282YTQga2OcU2-5" style="edgeStyle=orthogonalEdgeStyle;rounded=0;orthogonalLoop=1;jettySize=auto;html=1;exitX=0;exitY=1;exitDx=0;exitDy=0;" edge="1" parent="1" source="8ut2l5K282YTQga2OcU2-2" target="8ut2l5K282YTQga2OcU2-4">
          <mxGeometry relative="1" as="geometry">
            <Array as="points">
              <mxPoint x="280" y="360" />
              <mxPoint x="170" y="360" />
            </Array>
          </mxGeometry>
        </mxCell>
        <mxCell id="8ut2l5K282YTQga2OcU2-6" value="Yes, for example:&lt;br&gt;changePassword" style="edgeLabel;html=1;align=center;verticalAlign=middle;resizable=0;points=[];" vertex="1" connectable="0" parent="8ut2l5K282YTQga2OcU2-5">
          <mxGeometry x="0.22" y="-3" relative="1" as="geometry">
            <mxPoint x="22" as="offset" />
          </mxGeometry>
        </mxCell>
        <mxCell id="8ut2l5K282YTQga2OcU2-16" style="edgeStyle=orthogonalEdgeStyle;rounded=0;orthogonalLoop=1;jettySize=auto;html=1;exitX=1;exitY=1;exitDx=0;exitDy=0;entryX=0.5;entryY=0;entryDx=0;entryDy=0;" edge="1" parent="1" source="8ut2l5K282YTQga2OcU2-2" target="8ut2l5K282YTQga2OcU2-9">
          <mxGeometry relative="1" as="geometry" />
        </mxCell>
        <mxCell id="8ut2l5K282YTQga2OcU2-18" value="No, for example:&lt;br&gt;login_by_password" style="edgeLabel;html=1;align=center;verticalAlign=middle;resizable=0;points=[];" vertex="1" connectable="0" parent="8ut2l5K282YTQga2OcU2-16">
          <mxGeometry x="0.127" y="-1" relative="1" as="geometry">
            <mxPoint y="1" as="offset" />
          </mxGeometry>
        </mxCell>
        <mxCell id="8ut2l5K282YTQga2OcU2-2" value="&lt;span style=&quot;font-size: 11px; background-color: rgb(255, 255, 255);&quot;&gt;Need action ticket?&lt;/span&gt;" style="rhombus;whiteSpace=wrap;html=1;" vertex="1" parent="1">
          <mxGeometry x="260" y="260" width="80" height="80" as="geometry" />
        </mxCell>
        <mxCell id="8ut2l5K282YTQga2OcU2-8" style="edgeStyle=orthogonalEdgeStyle;rounded=0;orthogonalLoop=1;jettySize=auto;html=1;exitX=0.5;exitY=1;exitDx=0;exitDy=0;entryX=0.5;entryY=0;entryDx=0;entryDy=0;" edge="1" parent="1" source="8ut2l5K282YTQga2OcU2-4" target="8ut2l5K282YTQga2OcU2-7">
          <mxGeometry relative="1" as="geometry" />
        </mxCell>
        <mxCell id="8ut2l5K282YTQga2OcU2-4" value="this.$mhyAction.xx" style="rounded=0;whiteSpace=wrap;html=1;" vertex="1" parent="1">
          <mxGeometry x="110" y="410" width="120" height="40" as="geometry" />
        </mxCell>
        <mxCell id="8ut2l5K282YTQga2OcU2-15" style="edgeStyle=orthogonalEdgeStyle;rounded=0;orthogonalLoop=1;jettySize=auto;html=1;exitX=0.5;exitY=1;exitDx=0;exitDy=0;entryX=0.5;entryY=0;entryDx=0;entryDy=0;" edge="1" parent="1" source="8ut2l5K282YTQga2OcU2-7" target="8ut2l5K282YTQga2OcU2-13">
          <mxGeometry relative="1" as="geometry" />
        </mxCell>
        <mxCell id="8ut2l5K282YTQga2OcU2-7" value="this.$getActionTicket" style="rounded=0;whiteSpace=wrap;html=1;" vertex="1" parent="1">
          <mxGeometry x="110" y="500" width="120" height="40" as="geometry" />
        </mxCell>
        <mxCell id="8ut2l5K282YTQga2OcU2-20" style="edgeStyle=orthogonalEdgeStyle;rounded=0;orthogonalLoop=1;jettySize=auto;html=1;exitX=0.5;exitY=1;exitDx=0;exitDy=0;entryX=0.5;entryY=0;entryDx=0;entryDy=0;" edge="1" parent="1" source="8ut2l5K282YTQga2OcU2-9" target="8ut2l5K282YTQga2OcU2-19">
          <mxGeometry relative="1" as="geometry" />
        </mxCell>
        <mxCell id="8ut2l5K282YTQga2OcU2-9" value="init http request" style="rounded=0;whiteSpace=wrap;html=1;" vertex="1" parent="1">
          <mxGeometry x="360" y="590" width="120" height="40" as="geometry" />
        </mxCell>
        <mxCell id="8ut2l5K282YTQga2OcU2-17" style="edgeStyle=orthogonalEdgeStyle;rounded=0;orthogonalLoop=1;jettySize=auto;html=1;exitX=1;exitY=0.5;exitDx=0;exitDy=0;entryX=0;entryY=0.5;entryDx=0;entryDy=0;" edge="1" parent="1" source="8ut2l5K282YTQga2OcU2-13" target="8ut2l5K282YTQga2OcU2-9">
          <mxGeometry relative="1" as="geometry" />
        </mxCell>
        <mxCell id="8ut2l5K282YTQga2OcU2-13" value="create action ticket" style="rounded=0;whiteSpace=wrap;html=1;" vertex="1" parent="1">
          <mxGeometry x="110" y="590" width="120" height="40" as="geometry" />
        </mxCell>
        <mxCell id="8ut2l5K282YTQga2OcU2-22" style="edgeStyle=orthogonalEdgeStyle;rounded=0;orthogonalLoop=1;jettySize=auto;html=1;exitX=0.5;exitY=1;exitDx=0;exitDy=0;entryX=0.5;entryY=0;entryDx=0;entryDy=0;" edge="1" parent="1" source="8ut2l5K282YTQga2OcU2-19" target="8ut2l5K282YTQga2OcU2-21">
          <mxGeometry relative="1" as="geometry" />
        </mxCell>
        <mxCell id="8ut2l5K282YTQga2OcU2-19" value="httpServiceInterceptor" style="rounded=0;whiteSpace=wrap;html=1;" vertex="1" parent="1">
          <mxGeometry x="360" y="690" width="120" height="40" as="geometry" />
        </mxCell>
        <mxCell id="8ut2l5K282YTQga2OcU2-28" value="No, No Geetest" style="edgeStyle=orthogonalEdgeStyle;rounded=0;orthogonalLoop=1;jettySize=auto;html=1;exitX=1;exitY=1;exitDx=0;exitDy=0;entryX=0.5;entryY=0;entryDx=0;entryDy=0;" edge="1" parent="1" source="8ut2l5K282YTQga2OcU2-21" target="8ut2l5K282YTQga2OcU2-27">
          <mxGeometry relative="1" as="geometry">
            <Array as="points">
              <mxPoint x="500" y="840" />
            </Array>
          </mxGeometry>
        </mxCell>
        <mxCell id="8ut2l5K282YTQga2OcU2-29" value="Yes" style="edgeStyle=orthogonalEdgeStyle;rounded=0;orthogonalLoop=1;jettySize=auto;html=1;exitX=0;exitY=1;exitDx=0;exitDy=0;entryX=0.5;entryY=0;entryDx=0;entryDy=0;" edge="1" parent="1" source="8ut2l5K282YTQga2OcU2-21" target="8ut2l5K282YTQga2OcU2-26">
          <mxGeometry relative="1" as="geometry" />
        </mxCell>
        <mxCell id="8ut2l5K282YTQga2OcU2-21" value="config.mmt?" style="rhombus;whiteSpace=wrap;html=1;" vertex="1" parent="1">
          <mxGeometry x="380" y="780" width="80" height="80" as="geometry" />
        </mxCell>
        <mxCell id="8ut2l5K282YTQga2OcU2-30" style="edgeStyle=orthogonalEdgeStyle;rounded=0;orthogonalLoop=1;jettySize=auto;html=1;exitX=0.5;exitY=1;exitDx=0;exitDy=0;entryX=0;entryY=0.5;entryDx=0;entryDy=0;" edge="1" parent="1" source="8ut2l5K282YTQga2OcU2-26" target="8ut2l5K282YTQga2OcU2-27">
          <mxGeometry relative="1" as="geometry" />
        </mxCell>
        <mxCell id="8ut2l5K282YTQga2OcU2-31" value="GeeTest Passed" style="edgeLabel;html=1;align=center;verticalAlign=middle;resizable=0;points=[];" vertex="1" connectable="0" parent="8ut2l5K282YTQga2OcU2-30">
          <mxGeometry x="0.1176" y="-1" relative="1" as="geometry">
            <mxPoint as="offset" />
          </mxGeometry>
        </mxCell>
        <mxCell id="8ut2l5K282YTQga2OcU2-26" value="Do Geetest" style="rounded=0;whiteSpace=wrap;html=1;" vertex="1" parent="1">
          <mxGeometry x="250" y="880" width="120" height="40" as="geometry" />
        </mxCell>
        <mxCell id="8ut2l5K282YTQga2OcU2-33" style="edgeStyle=orthogonalEdgeStyle;rounded=0;orthogonalLoop=1;jettySize=auto;html=1;exitX=0.5;exitY=1;exitDx=0;exitDy=0;entryX=0.5;entryY=0;entryDx=0;entryDy=0;" edge="1" parent="1" source="8ut2l5K282YTQga2OcU2-27" target="8ut2l5K282YTQga2OcU2-32">
          <mxGeometry relative="1" as="geometry" />
        </mxCell>
        <mxCell id="8ut2l5K282YTQga2OcU2-27" value="Do Http Request" style="rounded=0;whiteSpace=wrap;html=1;" vertex="1" parent="1">
          <mxGeometry x="440" y="940" width="120" height="40" as="geometry" />
        </mxCell>
        <mxCell id="8ut2l5K282YTQga2OcU2-32" value="End" style="rounded=1;whiteSpace=wrap;html=1;" vertex="1" parent="1">
          <mxGeometry x="210" y="1080" width="120" height="40" as="geometry" />
        </mxCell>
      </root>
    </mxGraphModel>
  </diagram>
</mxfile>
